<svg version="1.1" id="svg1347" xmlns="http://www.w3.org/2000/svg" xmlns:xlink="http://www.w3.org/1999/xlink" x="0" y="0" viewBox="0 0 670 642.7" xml:space="preserve">
  <style>
    .st0{fill:#fff;stroke:#bc8810;stroke-width:4}.st1{fill:#bc8810}.st4{fill:none;stroke-width:4}.st10,.st11,.st4,.st5{stroke:#bc8810}.st5{fill:#bc8810;stroke-width:1.4724}.st10{fill:#fff;stroke-width:2}.st11{fill:none;stroke-width:4;stroke-linecap:square}
  </style>
  <path id="path925" class="st0" d="M364.1 10.7c-10.4 0-22.7 2.4-33.8 11-19.7 15-30.9 45.8-50.4 57.3h13.7s-10.2 22.6-18.3 27.4l13.7 2.3s-11.4 18.3-20.7 23l11.6 2.3s-18.2 36.5-27.4 41.1c0 0 5.1 20.7-9.3 25.3l16.2 34.4h153.5l16-32.1c-16-6.9-9.1-32.2-9.1-32.2l-9.3-16c-18.3-2.3-13.7-38.8-13.7-50.2 0-11.6-9.3-25.3-9.3-25.3 9.3-23 6.8-32.1 6.8-32.1.2-4.4-8.6-5.8-8-11.4.9-8.7 10.3-21 1-20.6.2 0-9.8-4.1-23.2-4.2z"/>
  <g id="g931">
    <path id="path929" class="st1" d="M325.4 74.7c1.3-4.3 2.9-8.3 4.6-12.5l1.1-2.7-2.5 1.6c-7.1 4.5-15.4 10.3-21.7 14.1 2.1-2.9 4.6-6.2 7.1-9.3 3.4-4.3 6.6-8.5 8.1-11.7l1.3-2.8c-6 3.5-11.6 8.2-16 12.7 4-1.8 7.7-4.8 11.1-7.2-1.6 2.4-3.7 5.1-5.9 7.9-3.4 4.3-7 8.8-9.3 12.7l-1.8 2.9 3-1.6c6.1-3.3 14.9-9.4 22.7-14.5-1.7 4.4-3.3 8.7-4.5 13.4l-.9 3.3 2.4-2.4c6.5-6.3 12.8-13.8 17.7-21.3-5.6 5.3-11 11.7-16.5 17.4m38.4-1.2c-.6 1.5-1.2 2.9-1.7 4.1-.6-4.4-1.3-8.2-3-12.4.6 5.8 1.3 9.6 1.4 15 0 .3-.1.5.2.9.1.2.6.5 1 .5s.5-.2.7-.3c.5-.4.6-.8.9-1.5.6-1.3 1.4-3.4 2.3-5.6 1.6-3.8 2.8-7.3 5-11.2-3.9 2.3-5.3 6.6-6.8 10.5m-18.8-.7c-1.3 1.6-2.6 3-3.3 3.6.1-3.8.1-7.5.2-11.3 0 0-2.1 6.8-2.1 11.6 0 .4 0 .7.2 1 .1.3.5.7.9.8.8.2 1.3-.2 1.8-.6 1.1-.8 2.3-2.2 3.6-3.9 2.7-3.4 4.8-6.7 6.9-10-3.1 2.4-5.6 5.5-8.2 8.8m30-3c-.6 2.8-.9 6.5 1.2 9.3-.2-2.9.1-6.3.6-8.9.6-2.7 1.5-5.3 1.5-5.3s-2.7 2-3.3 4.9m3 16.4-1.4 2.6c-2.8 5.2-5.6 10.3-8.3 15.5-2-4.8-4-9.5-6-14.2l-.7-1.8-.9 1.7c-2.4 4.3-7.6 10.5-9.5 12.8-3.8-5.4-10.8-14.1-10.8-14.1l-.8-1-.7 1.1c-3.3 5.1-6.6 10.1-9.9 15.2-2.8-2.2-4.9-6.5-5.6-12.5l-.4-3.2-1.4 2.9c-1.4 2.9-5.4 7.2-9.1 10.7-1.9 1.8-3.9 3.6-5.9 5.4-2.1-5-4.2-9.9-6.3-14.9l-1.2-2.8c-.6 4.6-3.4 9-5.4 12.4 2.7-1.5 4.7-3.9 5.9-6.6 1.9 4.6 3.9 9.2 5.8 13.7l.5 1.2 1-.8s3.3-2.7 7-6.3c2.9-2.8 6.1-6 8.1-9 1.1 5.6 3.5 9.8 6.8 11.8l.8.5.5-.8c3.2-5 6.5-10 9.7-14.9 2.1 2.7 7.8 9.9 10.6 14l.7 1 .8-.9s6-6.9 9.6-12.5c2 4.8 4 9.6 6.1 14.4l.7 1.8.9-1.7c2.7-4.9 5.3-9.9 8-14.8 1 4.2 2.7 9.4 6.3 11-3.9-6-4.9-10.9-5.5-16.9m-89.7 36.7c.1 1.3.3 3 .6 4.8.3 1.9.7 4 1.1 5.8.5 1.8.9 3.3 1.7 4.4l.6.8.8-.6s3.2-2.6 6.5-6.2c2.9-3.1 6-7 7.1-10.9 1.4 1.4 2.9 2.9 4.3 4.4 2.9 3 6.1 6.5 7.1 8l.5.8.8-.6s7.5-5.5 10-14.6c.9 2.5 1.8 5.6 2.7 8.6 1.3 4.3 2.4 8.3 3 10l.5 1.4 1-1s2.7-2.6 5.6-6.5c2.3-3.2 4.7-7.3 5.7-11.7 1.3 2.8 2.6 6.1 4.1 9.2 1.9 4.1 3.8 7.8 6.6 9.2l.6.3.5-.5s7.3-8 9.9-19c1.3 3.3 2.3 6.1 3.3 8.4 1.3 3 2.7 5.4 5 7.4l1 .9.5-1.3c1.9-5.4 3.3-11.3 5.4-16.3.5 3.4 1.7 6.8 5.1 10.2-2.9-6.3-3.5-11.1-3.6-17.2l-1.7 3.1c-3 5.4-4.5 12.2-6.5 18.3-1.4-1.6-2.4-3.4-3.5-5.7-1.3-2.9-2.5-6.6-4.5-11.3l-1.3-3.1-.5 3.4c-1.4 10.1-7.7 18.4-9.5 20.6-1.6-1.2-3.5-4.3-5.1-7.9-1.8-4-3.6-8.6-5.4-11.8l-1.5-2.6-.2 3c-.3 4.9-3.1 9.9-5.8 13.7-1.3 1.8-2.7 3.5-4.3 5.2-.6-2-1.5-5.2-2.5-8.5-1.3-4.3-2.7-8.9-4-11.7l-1.4-3.2-.4 3.5c-1 8.3-7 14.2-9.1 16-1.5-2-4.2-4.8-6.7-7.5-2.9-3-5.5-5.6-5.5-5.6l-1.3-1.3-.3 1.8c-.5 3.5-3.8 8.1-7 11.6-1.7 1.9-3.6 3.6-5.5 5.3-.3-.7-.6-1.7-.9-2.8-.4-1.7-.8-3.7-1.1-5.6-.6-3.8-.9-7.2-.9-7.2l-.2-2.5c-2.4 3.4-5 7-6.3 10.5 2.1-1.9 3.5-3.9 4.9-5.9m97.2 35.6c-2.2-3.8-5.4-10.7-7.2-14.6l-.9-1.9-.8 2c-3.7 8.8-7.1 14.8-8.5 17.1-1.4-1.9-3.3-5.5-4.8-8.7-1.1-2.4-2.2-4.8-3.3-7.3l-.7-1.6-1 1.5c-4.4 7-8.8 13.9-13.2 20.9-2.3-1.6-4.3-4.8-5.9-8.3-1.8-3.9-3.3-8.2-4.5-11.4l-1.2-3.2-.6 3.4c-1.1 6.4-5.5 14.8-7.2 18-1.3-2.3-2.7-5.8-3.7-8.9q-1.2-3.45-2.1-6.9l-.6-2.2-1.1 2c-3.8 6.7-5.1 9.9-11.8 18.4-1.5-2.5-3.7-6.9-5.6-10.8-2.1-4.6-3.9-8.6-3.9-8.6l-1.1-2.5-.7 2.7c-.5 2.1-2.8 8.3-5.5 12.9-1.3 2.3-2.8 4.3-4 5.3-.6.5-1.1.7-1.5.7s-.7-.1-1.2-.7c-4.4-5.5-6.5-13.3-6.5-13.3s.2 8.4 5.1 14.5c.7.9 1.6 1.4 2.6 1.4s1.8-.4 2.6-1c1.6-1.3 3.1-3.4 4.5-5.8 2.1-3.7 3.9-8 4.9-11 .7 1.6 1.7 3.9 2.9 6.4 2.2 4.6 4.7 9.8 6.5 12.2l.7 1 .7-.9c6.8-8.4 8.6-12 11.7-17.7.4 1.3.9 3 1.5 4.8 1.3 3.8 3 8.1 4.8 10.7l.8 1.2.7-1.2s5.2-8.8 7.5-16.9c1 2.7 2.1 5.7 3.5 8.6 1.9 4 4.2 7.8 7.4 9.6l.8.4.5-.7c4.3-6.7 8.5-13.4 12.8-20.2.8 1.9 1.7 3.8 2.6 5.7 1.9 3.9 4.1 8.1 6 10.1l.8.8.6-1s4-6 8.5-16.5c2.1 4.5 5.2 11.1 7.3 14.2l.8 1.2.7-1.3c3-5.2 5-9.6 4.8-16.5-1.2 4.9-3.2 9.5-5.5 13.9"/>
  </g>
  <path id="path933" d="M347 44c3.5-3.9 5.3-6.6 7.8-11.1 3.6-6.9 12.6-2.1 19.8-2.6-1.2-.3-2.1.3-2.1 1.2 0 4.8-2.7 10.6-8.3 11.4-5.1.7-9.9-1.2-14.9-.8-.8 0-1.5 1.1-2.3 1.9" style="fill:#fff"/>
  <defs>
    <path id="SVGID_1_" d="M347 44c3.5-3.9 5.3-6.6 7.8-11.1 3.6-6.9 12.6-2.1 19.8-2.6-1.2-.3-2.1.3-2.1 1.2 0 4.8-2.7 10.6-8.3 11.4-5.1.7-9.9-1.2-14.9-.8-.8 0-1.5 1.1-2.3 1.9"/>
  </defs>
  <clipPath id="SVGID_00000060008400442946984200000010929530942442325127_">
    <use xlink:href="#SVGID_1_" style="overflow:visible"/>
  </clipPath>
  <g id="g937" transform="translate(-270.832 -614.95)scale(5.11255)" style="clip-path:url(#SVGID_00000060008400442946984200000010929530942442325127_)"/>
  <path id="path939" class="st1" d="M361.8 28.2c-1.3 0-2.6.2-3.7.6-1.6.6-3.1 1.8-4.1 3.7-3 6-7 9.5-9.1 14.8 1.6-1.3 3-3 4.4-4.3 4.7-.3 9.5 1.5 14.9.8 3.1-.5 5.4-2.3 6.8-4.6s2.1-5 2.1-7.5c1.8-.3 3.2-1.5 4.8-2.6-4.9 1.2-10.3-.4-14.7-.8-.3 0-.9-.1-1.4-.1m0 1.9c.5 0 .9 0 1.4.1 2.5.2 5.4.8 8.2 1v.3c0 2.2-.6 4.7-1.8 6.7s-3 3.4-5.5 3.8c-4.4.6-8.7-.9-13.4-.9 1.8-2.4 3.2-4.6 4.9-7.7.8-1.6 1.8-2.4 3.1-2.8.9-.4 1.9-.5 3.1-.5"/>
  <path id="path941" class="st0" d="M253.5 193.1s12.1-19 0-38 8.9-20 6.6-32.7c-2.1-12.6-17.5-61.3-73.7-59.1-56.3 2.1-96 42.3-105.9 48.6-9.9 6.4-20.8 15.9-27.4 3.3 0 0-4.5 10.6 1 16.9 5.6 6.1 12.2 10.4 22.1 6.1 0 0-23.1 33.9-25.5 44.4-2.1 10.6-3.3 10.6-12.1 7.4 0 0 1.2 9.6 6.6 10.6 5.4 1.2 13.2 5.3 18.7-3.1 0 0-9.9 23.3-6.6 37 4.5 18-1 34.9-5.4 38.2 0 0 17.7 4.1 26.4-7.4 0 0-1.2 57.2-16.5 75 0 0 17.7 7.4 25.3-4.1 0 0-13.2 80.3-76 196.8 0 0 21 7.3 37.5-25.5 0 0 18.7 6.3 33-25.4 0 0 35.2 1.2 46.3-53.9 0 0 23.1 5.3 33.1-29.6l29.7-32.9s19.9 7.5 29.7-29.6c6.3-23.9 10.2-39.5 13.5-81.8 8.7 24.6 15.8 4 17.4-2 6.2-23.8 2.2-59.2 2.2-59.2z"/>
  <g id="g955">
    <path id="path943" class="st4" d="M76.2 138.1c5.4-6.1 52.9-54.7 106.9-54.7m-2.3 17.8s-44.9 4-76 35.9C77.2 165.7 64 197.4 64 197.4"/>
    <path id="path945" class="st4" d="M178.6 118.2s-32.2 7.3-56.2 26.3c-13.2 10.6-35.4 37-38.7 57.2-3.3 20-5.4 52.9-5.4 63.4"/>
    <path id="path947" class="st4" d="M176.5 138.1c-5.6 2.1-25.9 6.8-45.3 22.3-13.2 10.6-28.6 31.7-30.9 68.7-2.1 37 1.2 66.6-13.2 106.9"/>
    <path id="path949" class="st4" d="M183.1 152.9c-8.9 4.3-58.5 15.9-64 80.5-5.6 64.4-6.6 107.9-24.3 155.5-13.2 35.5-46.3 118.5-46.3 118.5"/>
    <path id="path951" class="st4" d="M81.6 481.9s32.9-71.7 44.1-117.3c13.2-54 13.7-109.1 14.4-123.8 1-29.7 2.1-49.7 41.8-64.6"/>
    <path id="path953" class="st4" d="M186.4 194.2c-6.6 1-26.1 7.4-25.4 52.9 1.2 75.2-29.6 172.5-33.1 180.9m68.4-213.8c-4.5 1.2-15-3.1-14.4 33.9 1.2 59.3-14.4 124.9-21 150.4m49.6-157.7s0 59.1-19.8 124.8"/>
  </g>
  <path id="path959" class="st5" d="M268.8 219.5s-10.9-37-30.7-41.1 3.3-18-12.1-27.6c0 0 14.2-18.9 10.9-33.7-3.3-14.7-9.6-36.7-38.5-42.3-9.7-1.9-9.5-4.7-8.8-11.4-.8-.2-.5-.3-3.3-.2-1.2 9.7-2.3 23.3-4.5 30.7-2.2 7.3-9.9 51.5 1.2 59 0 0-4.5 28.6 1 38.2 5.6 9.4 11.1 25.3 19.8 27.4 0 0 2.3 38.2 39.7 38.2l.7-5.9z"/>
  <path id="path963" class="st0" d="M416.6 193.1s-12-19 0-38-8.9-20-6.6-32.7c2.1-12.6 17.5-61.3 73.7-59.1 56.3 2.1 96 42.3 105.9 48.6 9.9 6.4 20.8 15.9 27.4 3.3 0 0 4.5 10.6-1 16.9-5.6 6.1-12.2 10.4-22.1 6.1 0 0 23.1 33.9 25.5 44.4 2.1 10.6 3.3 10.6 12 7.4 0 0-1.2 9.6-6.6 10.6-5.4 1.2-13.2 5.3-18.7-3.1 0 0 9.9 23.3 6.6 37-4.5 18 1 34.9 5.5 38.2 0 0-17.7 4.1-26.4-7.4 0 0 1.2 57.2 16.5 75 0 0-17.7 7.4-25.3-4.1 0 0 13.2 80.3 76 196.8 0 0-21 7.3-37.5-25.5 0 0-18.7 6.3-33-25.4 0 0-35.2 1.2-46.3-53.9 0 0-23.1 5.3-33.1-29.6l-29.7-32.9s-19.9 7.5-29.7-29.6c-6.3-23.9-10.2-39.5-13.5-81.8-8.7 24.6-15.8 4-17.4-2-6.3-23.8-2.2-59.2-2.2-59.2z"/>
  <g id="g977">
    <path id="path965" class="st4" d="M593.8 138.1c-5.4-6.1-52.9-54.7-106.9-54.7m2.3 17.8s44.9 4 76 35.9c27.6 28.6 40.8 60.3 40.8 60.3"/>
    <path id="path967" class="st4" d="M491.4 118.2s32.2 7.3 56.2 26.3c13.2 10.6 35.4 37 38.7 57.2 3.3 20 5.4 52.9 5.4 63.4"/>
    <path id="path969" class="st4" d="M493.5 138.1c5.6 2.1 25.9 6.8 45.3 22.3 13.2 10.6 28.6 31.7 30.9 68.7 2.1 37-1.2 66.6 13.2 106.9"/>
    <path id="path971" class="st4" d="M486.9 152.9c8.9 4.3 58.5 15.9 64 80.5 5.6 64.4 6.6 107.9 24.3 155.5 13.2 35.5 46.3 118.5 46.3 118.5"/>
    <path id="path973" class="st4" d="M588.4 481.9s-32.9-71.7-44.1-117.3c-13.2-54-13.7-109.1-14.4-123.8-1-29.7-2.1-49.7-41.8-64.6"/>
    <path id="path975" class="st4" d="M483.6 194.2c6.6 1 26.1 7.4 25.5 52.9-1.2 75.2 29.6 172.5 33.1 180.9m-68.5-213.8c4.5 1.2 15-3.1 14.4 33.9-1.2 59.3 14.4 124.9 21 150.4m-49.6-157.7s0 59.1 19.8 124.8"/>
  </g>
  <g id="g985">
    <path id="path981" class="st5" d="M401.2 219.5s10.9-37 30.7-41.1-3.3-18 12.1-27.6c0 0-14.2-18.9-10.9-33.7 3.3-14.7 9.6-36.7 38.5-42.3 9.7-1.9 9.5-4.7 8.7-11.4.8-.2.5-.3 3.3-.2 1.2 9.7 2.3 23.3 4.5 30.7 2.1 7.3 9.9 51.5-1.2 59 0 0 4.5 28.6-1 38.2-5.6 9.4-11.1 25.3-19.8 27.4 0 0-2.3 38.2-39.7 38.2l-.6-5.9z"/>
  </g>
  <g id="g1003">
    <path id="path987" d="m267.8 382.2-106.4 100 75.2 57.9 101.1 34 109.2-30.8 64.7-59.3-111.3-100.7z" style="fill:#fff;stroke:#bc8810;stroke-width:10"/>
    <g id="g1001">
      <path id="path991" class="st5" d="m335.7 448-4-2.8s-2.3 38.3-15.5 59.6c-7.3 11.6-13.2 24.1-14.4 26.4-1.2 2.2-7.4 9.9 6.9 10.9 9.7.5 26.4.5 26.4.5l26.3-.5c14.4-1 8.1-8.8 6.9-10.9-1.2-2.3-7.1-14.9-14.4-26.4-13.2-21.3-15.5-59.6-15.5-59.6zm71.7-37.9c11.6 17.7 33.5 44.5 67.4 61.4 6.8 3.5 9.7 4.6 5.1 8.8-4.6 4-9.3 9.1-17.8 5.6-7.2-2.9-47.1-28.1-64.9-63.5q5.25-6 10.2-12.3z"/>
      <path id="path993" class="st5" d="M393.6 426.2c9.9 18 28.8 45 59.7 63.8 6.5 3.8 9.1 5.1 4.3 8.8-4.8 3.5-9.6 8.1-17.7 4.1-6.6-3.5-42.6-30.5-57.3-65.7 3.8-3.5 7.5-7.2 11-11z"/>
      <path id="path995" class="st5" d="M377 442.3c9.3 18.4 26.9 45.8 56.4 65.5 6.3 4.1 8.9 5.6 4 8.9-5 3.3-9.9 7.8-17.8 3.3-6.5-3.6-41.1-32.2-54.4-67.9 4.1-3.1 8-6.4 11.8-9.8zm-17.4 14.1c6.8 15.3 20 37.9 44.8 63.8 5.1 5.4 8.3 6.3 3.1 9.3-5.1 3-15 7.4-22.5 2.7-6.1-4-28.9-35.2-37.7-67.1q6.3-4.2 12.3-8.7zm-96.8-47c-11.6 17.7-33.4 44.6-67.3 61.5-6.9 3.5-9.8 4.6-5.1 8.6 4.5 4 9.1 9.3 17.7 5.8 7.2-2.9 47-28.3 64.9-63.7-3.5-3.9-6.9-8-10.2-12.2z"/>
      <path id="path997" class="st5" d="M276.5 425.6c-10 18-28.9 45.1-59.6 63.8-6.3 4-8.9 5.3-4.3 8.8 4.8 3.5 9.6 8.1 17.7 4.1 6.8-3.3 42.5-30.5 57.2-65.6-3.8-3.6-7.5-7.3-11-11.1z"/>
      <path id="path999" class="st5" d="M293 441.7c-9.2 18.4-26.8 45.8-56.3 65.5-6.1 4.1-8.8 5.6-4 8.9 5 3.3 10.1 7.8 17.8 3.5 6.6-3.7 41.1-32.3 54.2-68-3.9-3.2-7.9-6.5-11.7-9.9zm17.4 14.2c-6.8 15.4-19.9 37.9-44.6 63.8-5 5.3-8.3 6.1-3.1 9.1 5 3 14.9 7.6 22.5 2.7 6-3.9 28.7-34.9 37.7-66.8-4.3-2.8-8.5-5.7-12.5-8.8z"/>
    </g>
  </g>
  <g id="g1019">
    <g id="g1007">
      <path id="path1005" class="st5" d="m247.8 339.7-9.8 4.4c-5.4 4.4-6.9 11.3-6.9 11.3s6.4 1.5 12.8-.5 9.3-4.9 9.3-4.9zm5.9 11.7-9.8 4.4c-5.4 4.4-6.9 11.3-6.9 11.3s6.4 1.5 12.8-.5 9.3-4.9 9.3-4.9zm5.8 12.3-9.8 4.4c-5.4 4.4-6.9 11.3-6.9 11.3s6.4 1.5 12.8-.5 9.3-4.9 9.3-4.9zm6.4 12.8-9.8 4.4c-5.4 4.4-6.9 11.3-6.9 11.3s6.4 1.5 12.8-.5 9.3-4.9 9.3-4.9zm7.3 12.7-9.8 4.4c-5.4 4.4-6.9 11.3-6.9 11.3s6.4 1.5 12.8-.5 9.3-4.9 9.3-4.9z"/>
    </g>
    <g id="g1017">
      <g id="g1013">
        <path id="path1011" class="st5" d="m421.7 339.7 9.8 4.4c5.4 4.4 6.9 11.3 6.9 11.3s-6.4 1.5-12.8-.5-9.3-4.9-9.3-4.9zm-5.8 11.7 9.8 4.4c5.4 4.4 6.9 11.3 6.9 11.3s-6.4 1.5-12.8-.5-9.3-4.9-9.3-4.9zm-5.9 12.3 9.8 4.4c5.4 4.4 6.9 11.3 6.9 11.3s-6.4 1.5-12.8-.5-9.3-4.9-9.3-4.9zm-6.4 12.8 9.8 4.4c5.4 4.4 6.9 11.3 6.9 11.3s-6.4 1.5-12.8-.5-9.3-4.9-9.3-4.9zm-7.3 12.7 9.8 4.4c5.4 4.4 6.9 11.3 6.9 11.3s-6.4 1.5-12.8-.5-9.3-4.9-9.3-4.9z"/>
      </g>
    </g>
  </g>
  <g id="g1039">
    <path id="path1021" class="st0" d="m387.6 178.5 48.6 64.2c13.5 87.6-23.3 164.5-101 214-77.7-49.5-114.3-126.5-100.9-214l48.5-64.2z"/>
    <g id="g1037">
      <path id="path1025" d="M335.7 195.4v238.8c66.8-42.6 98.1-108.4 86.7-183.7l-41.9-55.1z"/>
      <path id="path1027" d="M290.8 195.4 249 250.5c-11.4 75.3 19.9 141.1 86.6 183.7 0 0 .1 0 .1-.1V195.4z" style="fill:#007a3d"/>
      <path id="path1029" d="M306.5 195.4v216.8c8.8 7.9 18.5 15.3 29.2 22.1 10.7-6.8 20.5-14.3 29.4-22.2V195.4z" style="fill:#fff;stroke:#bc8810;stroke-width:1.4724;stroke-dasharray:0,3.1714"/>
      <g id="g1033"/>
      <path id="path1035" d="m380.5 195.4 42 55.1c11.4 75.3-19.9 141.1-86.8 183.7-66.8-42.6-98.1-108.5-86.6-183.7l41.8-55.1z" style="fill:none;stroke:#bc8810;stroke-width:10"/>
    </g>
  </g>
  <g id="g1295">
    <path id="path1041" class="st10" d="M219.7 400.1s-27.1-15.2-15.5-23c10.4-6.7 16.7 12.1 15.5 23z"/>
    <path id="path1045" class="st10" d="M227.1 414s-19.8-23.6-1.8-38.3c0 0 14.6 13 1.8 38.3z"/>
    <path id="path1049" class="st10" d="M227.1 414s-5-23.8-31.7-20.3c0 0 8.6 24.8 31.7 20.3z"/>
    <path id="path1053" class="st10" d="M232.3 427.7s-2.5-22.7-28.9-19.2c0 0 3.1 17.4 28.9 19.2z"/>
    <path id="path1057" class="st10" d="M234.1 427s-18.7-21.8-.7-36.5c0 0 15.7 16.2.7 36.5z"/>
    <path id="path1061" class="st10" d="M239.9 439.1s-3.1-20.3-29.6-16.9c0 .1 6.3 21.5 29.6 16.9z"/>
    <g id="g1069">
      <path id="path1065" class="st10" d="M240.9 440.9s-18.7-22-.7-36.7c0 0 14.5 13.1.7 36.7z"/>
    </g>
    <g id="g1081">
      <path id="path1071" class="st10" d="M249.6 453.5s-19.3-20.8-1.3-35.4c0 0 14.9 11.3 1.3 35.4z"/>
      <g id="g1079">
        <path id="path1075" class="st10" d="M249.6 453.5s-4.8-20.8-31.2-17.4c0 0 7.9 22 31.2 17.4z"/>
      </g>
    </g>
    <g id="g1093">
      <path id="path1083" class="st10" d="M257.1 466.7s-4.1-20.2-33-19.2c-.1 0 9.7 23.7 33 19.2z"/>
      <g id="g1091">
        <path id="path1087" class="st10" d="M258.7 465.5s-18.8-11.4-3-36c0 0 11.4 10.8 3 36z"/>
      </g>
    </g>
    <g id="g1105">
      <path id="path1095" class="st10" d="M269 478.8s-6.6-18.7-32.9-15.2c0 0 5.4 18.6 32.9 15.2z"/>
      <g id="g1103">
        <path id="path1099" class="st10" d="M269 478.8s-22.6-19.7-4.8-34.2c0 0 16.2 10 4.8 34.2z"/>
      </g>
    </g>
    <g id="g1117">
      <path id="path1107" class="st10" d="M284.3 490.8s-13.7-18.3-39.3-13.5c0 0 18.2 18.8 39.3 13.5z"/>
      <g id="g1115">
        <path id="path1111" class="st10" d="M284.3 490.8s-24.5-8.1-10.4-34.9c0 .1 11.1 2.7 10.4 34.9z"/>
      </g>
    </g>
    <g id="g1129">
      <path id="path1119" class="st10" d="M294.7 501.1s-11.7-19.3-36-12.6c0 0 13.7 20.3 36 12.6z"/>
      <g id="g1127">
        <path id="path1123" class="st10" d="M294.7 501.1s-24.8-17.5-8.9-34.5c0-.1 15.9 7 8.9 34.5z"/>
      </g>
    </g>
    <g id="g1141">
      <path id="path1131" class="st10" d="M308.5 515s-27.4-18-13.1-36.3c0-.1 17.7 7.5 13.1 36.3z"/>
      <g id="g1139">
        <path id="path1135" class="st10" d="M308.5 515s-10.9-22.3-38.2-12c0-.1 15.7 22 38.2 12z"/>
      </g>
    </g>
    <g id="g1153">
      <path id="path1143" class="st10" d="M324.5 528.7s-27.4-16-14.9-35.5c0-.1 16 6.7 14.9 35.5z"/>
      <g id="g1151">
        <path id="path1147" class="st10" d="M322.3 527.5s-13.9-20.7-38-9.3c0 .1 17.4 20.7 38 9.3z"/>
      </g>
    </g>
    <g id="g1165">
      <path id="path1155" class="st10" d="M332.6 537.9s-23-13.9-10.2-33.4c-.1 0 18.3 9.3 10.2 33.4z"/>
      <g id="g1163">
        <path id="path1159" class="st10" d="M332.6 537.9s-9.1-18.5-33.2-6.9c0 0 12.5 18.3 33.2 6.9z"/>
      </g>
    </g>
    <g id="g1293">
      <path id="path1167" class="st10" d="M450.7 400.1s27.1-15.2 15.5-23c-10.4-6.7-16.7 12.1-15.5 23z"/>
      <path id="path1171" class="st10" d="M443.2 414s19.8-23.6 1.8-38.3c0-.1-14.5 13-1.8 38.3z"/>
      <path id="path1175" class="st10" d="M443.2 414s5-23.8 31.7-20.3c.1 0-8.5 24.7-31.7 20.3z"/>
      <path id="path1179" class="st10" d="M438.1 427.7s2.5-22.7 28.9-19.2c0 0-3.1 17.4-28.9 19.2z"/>
      <path id="path1183" class="st10" d="M436.3 427s18.7-21.8.7-36.5c0 0-15.7 16.2-.7 36.5z"/>
      <path id="path1187" class="st10" d="M430.5 439.1s3.1-20.3 29.6-16.9c0 0-6.3 21.5-29.6 16.9z"/>
      <g id="g1195">
        <path id="path1191" class="st10" d="M429.5 440.9s18.7-22 .7-36.7c0 0-14.6 13.1-.7 36.7z"/>
      </g>
      <g id="g1207">
        <path id="path1197" class="st10" d="M420.8 453.5s19.3-20.8 1.3-35.4c0 0-14.9 11.2-1.3 35.4z"/>
        <g id="g1205">
          <path id="path1201" class="st10" d="M420.8 453.5s4.8-20.8 31.2-17.4c0 0-8 22-31.2 17.4z"/>
        </g>
      </g>
      <g id="g1219">
        <path id="path1209" class="st10" d="M413.3 466.7s4.1-20.2 33-19.2c.1 0-9.7 23.7-33 19.2z"/>
        <g id="g1217">
          <path id="path1213" class="st10" d="M411.7 465.5s18.8-11.4 3-36c-.1 0-11.5 10.7-3 36z"/>
        </g>
      </g>
      <g id="g1231">
        <path id="path1221" class="st10" d="M401.4 478.8s6.6-18.7 32.9-15.2c0 0-5.4 18.6-32.9 15.2z"/>
        <g id="g1229">
          <path id="path1225" class="st10" d="M401.4 478.8s22.6-19.7 4.8-34.2c0-.1-16.2 10-4.8 34.2z"/>
        </g>
      </g>
      <g id="g1243">
        <path id="path1233" class="st10" d="M386.1 490.8s13.7-18.3 39.3-13.5c0 0-18.2 18.8-39.3 13.5z"/>
        <g id="g1241">
          <path id="path1237" class="st10" d="M386.1 490.8s24.5-8.1 10.4-34.9c0 .1-11.1 2.7-10.4 34.9z"/>
        </g>
      </g>
      <g id="g1255">
        <path id="path1245" class="st10" d="M375.6 501.1s11.7-19.3 36-12.6c.1 0-13.6 20.3-36 12.6z"/>
        <g id="g1253">
          <path id="path1249" class="st10" d="M375.6 501.1s24.8-17.5 8.9-34.5c.1-.1-15.8 7-8.9 34.5z"/>
        </g>
      </g>
      <g id="g1267">
        <path id="path1257" class="st10" d="M361.9 514.9s27.4-18 13.1-36.3c0 0-17.7 7.6-13.1 36.3z"/>
        <g id="g1265">
          <path id="path1261" class="st10" d="M361.9 514.9s10.9-22.3 38.2-12c0 0-15.7 22.1-38.2 12z"/>
        </g>
      </g>
      <g id="g1279">
        <path id="path1269" class="st10" d="M345.9 528.7s27.4-16 14.9-35.5c0-.1-16.1 6.7-14.9 35.5z"/>
        <g id="g1277">
          <path id="path1273" class="st10" d="M348.1 527.5s13.9-20.7 38-9.3c0 0-17.4 20.7-38 9.3z"/>
        </g>
      </g>
      <g id="g1291">
        <path id="path1281" class="st10" d="M337.8 537.9s23-13.9 10.2-33.4c.1 0-18.3 9.3-10.2 33.4z"/>
        <g id="g1289">
          <path id="path1285" class="st10" d="M337.8 537.9s9.1-18.5 33.2-6.9c0 0-12.5 18.3-33.2 6.9z"/>
        </g>
      </g>
    </g>
  </g>
  <g id="g1323">
    <g id="g1319">
      <path id="path1297" class="st0" d="M153.5 469.4c-13.1.3-26.6 13-32.4 18-7.9 6.9-10.2 10.3-10.2 10.3-2.3 3.5-5.8-20.6-29.9 4.6-24.1 25.3-23 24.1-21.8 35.7 1.2 11.4 1.2 18.3 0 28.6 0 0 27.6-11.4 27.6-14.9 0 0 6 30.4 23 36.7 10.9 4 14.9-4.6 14.9-4.6s23-17.2 24.1-21.8c1.2-4.6 75.7 71.2 186.9 70.1 111.2 1.2 185.7-74.7 186.9-70.1s24.1 21.8 24.1 21.8 4 8.6 14.9 4.6c17-6.3 23-36.7 23-36.7 0 3.5 27.6 14.9 27.6 14.9-1.2-10.2-1.2-17.2 0-28.6 1.2-11.6 2.3-10.4-21.8-35.7s-27.6-1.2-29.9-4.6c0 0-2.3-3.3-10.2-10.2-8.1-6.9-31.1-28.7-47.1-11.4-71.5 76.5-147.9 79.1-167.4 79.1s-95.8-2.7-167.4-79.1c-4.7-5-9.7-6.8-14.9-6.7z"/>
      <path id="path1301" class="st4" d="M110.9 497.6c-4.6 4.6-11.6 15-13.9 20.7-2.1 5.8-3.3 16.2 8.1 33.4 11.6 17.2 19.5 20.7 19.5 32.1"/>
      <path id="path1303" class="st11" d="M60.3 527.5c5.8-2.3 20.6-4.6 26.4 24.1"/>
      <path id="path1305" class="st4" d="M96 524c5.6-6.8 9.1-5.8 27.4 13.9 18.4 19.5 18.8 18.2 25.8 23.8"/>
      <g id="g1317">
        <path id="path1309" class="st4" d="M560.3 497.6c4.6 4.6 11.6 15 13.9 20.7 2.2 5.8 3.3 16.2-8.1 33.4-11.6 17.2-19.5 20.7-19.5 32.1"/>
        <path id="path1311" class="st11" d="M610.9 527.5c-5.8-2.3-20.7-4.6-26.4 24.1"/>
        <path id="path1313" class="st4" d="M575.2 524c-5.6-6.8-9.1-5.8-27.4 13.9-18.3 19.5-18.8 18.2-25.8 23.8"/>
      </g>
    </g>
  </g>
  <g id="g1343">
    <g id="g1329">
      <path id="path1325" class="st0" d="M558.6 534.5c2.1-3 3.5-9.7-3.5-15.5-5.6-4.6-7.9-5.1-9.1-7.4 0 0-3.5 7.9-.7 14.9 1.4 3 6.4 17.1 13.3 8z"/>
      <path id="path1327" class="st0" d="M549.4 547c2.5-2.7 3.1-8.3-2-13.5-5.4-5.3-13.2-3.8-14.7-6-.6 3.4.2 10.4 2 15 0 .1 8.4 11.5 14.7 4.5zm-12.1 11.6c2.8-2.5 1.5-10.4-4.3-14.9-6-4.8-10.9-4.3-12.2-6.6-2.4 4.6-2.5 12.9 1.1 16.6 4.8 5.2 11.4 8.2 15.4 4.9z"/>
    </g>
    <g id="g1341">
      <g id="g1337">
        <path id="path1333" class="st0" d="M107.1 534.5c-2.1-3-3.5-9.7 3.5-15.5 5.6-4.6 7.9-5.1 9.1-7.4 0 0 3.5 7.9.7 14.9-1.4 3-6.4 17.1-13.3 8z"/>
        <path id="path1335" class="st0" d="M116.4 547c-2.5-2.7-3.1-8.3 2-13.5 5.4-5.3 13.2-3.8 14.7-6 .6 3.4-.2 10.4-2 15 0 .1-8.5 11.5-14.7 4.5zm12 11.6c-2.8-2.5-1.5-10.4 4.3-14.9 5.9-4.8 10.9-4.3 12.2-6.6 2.4 4.6 2.4 12.9-1.1 16.6-4.8 5.2-11.4 8.2-15.4 4.9z"/>
      </g>
    </g>
  </g>
  <path id="path1345" d="M382.1 44.1c.3-2.8.1-2.1.7-4 0 0 18.8-16.1 29.2-4.1 0 0-13.9-.4-17.3 9.2-4.6-1-9-1.8-12.6-1.1zm.6-4c-5.1-5.6-4.3-19.8 1.2-25.9l.3-.3c1.9.6 3 1 3 1s22.9-2.3 25.2 11.4c0 0-5 .5-11 2-2 .5-3.9 1.1-5.8 1.8-3 1.1-5.9 2.5-8.2 4.3-2.1 1.6-3.8 3.5-4.7 5.7z" style="fill-rule:evenodd;clip-rule:evenodd;fill:#fff;stroke:#bc8810;stroke-width:1.8505"/>
  <path id="path1031-2" d="m335.7 212.9-5.4 16.8h-17.7l14.3 10.4-5.5 16.8 14.3-10.4 14.3 10.4-5.5-16.8 14.3-10.4h-17.7zm0 68.9-5.4 16.8h-17.7l14.3 10.4-5.5 16.8 14.3-10.4 14.3 10.4-5.5-16.8 14.3-10.4h-17.7zm0 68.9-5.4 16.8h-17.7l14.3 10.4-5.5 16.8 14.3-10.4 14.3 10.4-5.5-16.8 14.3-10.4h-17.7z" style="fill:#ce1126"/>
  <path class="st1" d="M181.8 514.2c-.4.5-1 .7-1.6.7s-1.2-.3-1.7-.8q-.75-.75-.9-1.8c0-.7.2-1.2.6-1.6.5-.5 1-.7 1.6-.6.6 0 1.2.3 1.7.8s.8 1.1.8 1.7c.1.6-.1 1.2-.5 1.6m-4.6-4.4c-.4.4-1 .6-1.6.6s-1.2-.3-1.7-.9c-.5-.5-.8-1.1-.8-1.8s.2-1.2.7-1.6 1-.6 1.7-.6c.6.1 1.2.4 1.7.9s.8 1.1.8 1.7c-.1.7-.3 1.2-.8 1.7m-9.1 40.5c-.4.5-1 .7-1.7.7s-1.4-.3-2-.9c-.7-.6-1-1.2-1.2-1.9-.1-.7 0-1.3.4-1.8s1-.7 1.7-.6 1.4.4 2 .9q.9.75 1.2 1.8c.2.8.1 1.3-.4 1.8m-5.6-4.9c-.4.5-1 .7-1.7.6s-1.4-.4-2-.9c-.6-.6-1-1.2-1.1-1.9s0-1.3.5-1.8c.4-.5 1-.7 1.7-.6s1.3.4 2 1c.6.6 1 1.2 1.1 1.9s0 1.3-.5 1.7m21-12.2L172 546.8c-7.3-6.2-14.4-12.8-21.1-20l3.4-3.1c1.4-1.2 3.1-1.6 5.2-1.3s3.9 1.2 5.5 2.8l4.8-4.8c.4-.4.6-1 .6-1.7-.1-.7-.3-1.3-.9-1.8 3.5 1.5 6.9 1.8 10.3.7L164.3 534q3.15 3 6.3 5.7l2.9-3.3c.4-.5.5-1 .4-1.7s-.5-1.3-1-1.8c3.7 1.4 7.2 1.5 10.6.3m-21.7-4.8c-.6-.5-1.2-.9-1.9-.9-.7-.1-1.3.1-1.7.5l2 2zm18.5 16.6c.6.5 1 1.1 1.1 1.8q.3 1.05-.3 1.8l-2.7 3.4c-1.8 2.3-5 1.7-9.4-1.9-.2-.1-.2-.1-.2.1.2 1.1.6 2.1 1.3 3.1q1.05 1.5 2.1 2.4c4.3 3.4 7.9 3.3 10.8-.2l8.1-10.6c-3.4 1.3-7 1.3-10.8.1m92.5 10.9c-.6-.2-1.2-.2-1.8.1q-.9.45-1.2 1.2l-13.2 37.9-5.4-2 17.2-46c.2 1.7.7 3.3 1.4 4.7.7 1.7 1.7 3 3 4.1m-9.4-10.5-18.3 45.5c-16.2-6.5-31.6-14.6-46.1-24.1-2.4 3.8-6.1 4.1-10.8.8-2.2-1.6-3.8-3.6-4.8-5.9-.1-.3 0-.3.2-.2 5.4 3.9 9 4.6 10.6 2.1-2.4-1.6-4.7-3.3-7-4.9l2.6-3.6c1.1-1.5 2.7-2.3 4.7-2.4 2.1-.1 4 .4 5.8 1.7 1.1.7 2.1 1.2 3.2 1.5 1.1.2 2 .2 2.7-.2l-4.9 7.5 3.7 2.4 3.7 2.3c.3-.5.4-1.1.1-1.8-.2-.7-.7-1.2-1.3-1.6 2 .4 3.8.5 5.6.2s3.4-.8 5-1.7l-4.4 7.7c1.6.9 3.2 1.9 4.9 2.8l1.1-1.9c.3-.5.3-1.1.1-1.8-.3-.6-.7-1.1-1.4-1.5 3.9.6 7.4-.1 10.4-1.9l-5.1 9.9 5.1 2.6 2-4c.3-.6.3-1.1 0-1.8-.3-.6-.8-1.1-1.4-1.5 3.9.5 7.3-.4 10.3-2.4l-5.7 12.1c2.6 1.2 5.2 2.3 7.8 3.5l14.1-32.8c.2-.6.2-1.1 0-1.7-.3-.6-.7-1-1.3-1.3 1.8 0 3.4-.3 4.9-.8 1.2-.9 2.6-1.7 3.9-2.8M198 558.1c-.7-.4-1.3-.6-2-.6s-1.2.3-1.6.8l2.3 1.6zm92.2 14.7c-.1.6-.5 1.1-1.1 1.4s-1.2.4-1.9.2-1.3-.5-1.7-1.1c-.4-.5-.5-1.1-.3-1.7s.5-1.1 1.1-1.4 1.2-.3 1.9-.2c.7.2 1.2.5 1.6 1 .5.6.6 1.2.4 1.8m-6.2-1.5c-.2.6-.5 1.1-1.1 1.4s-1.2.4-1.9.2-1.2-.6-1.6-1.1c-.4-.6-.5-1.1-.3-1.7s.6-1.1 1.1-1.3c.6-.3 1.2-.3 1.9-.1s1.2.5 1.6 1.1c.4.3.5.9.3 1.5m13 39.5c-.1.6-.5 1.1-1.1 1.4s-1.4.4-2.2.3c-.9-.1-1.5-.5-2-1s-.7-1.1-.6-1.7.5-1.1 1.1-1.4 1.4-.4 2.2-.2c.8.1 1.5.5 1.9 1 .7.4.8 1 .7 1.6m-7.3-1.3c-.1.6-.5 1.1-1.1 1.4s-1.4.4-2.2.2-1.5-.5-1.9-1.1c-.5-.5-.6-1.1-.5-1.7s.5-1.1 1.2-1.4c.6-.3 1.4-.3 2.2-.2.8.2 1.5.5 1.9 1 .3.6.5 1.2.4 1.8m18.7 2.9c-.1.6-.4 1.1-1 1.5s-1.3.5-2.2.4-1.5-.4-2.1-.9c-.5-.5-.7-1.1-.6-1.7s.4-1.1 1.1-1.4c.6-.3 1.4-.4 2.2-.3s1.5.4 2 .9q.75.6.6 1.5m6.3-22.4-1.8 17.7-2.7-.3-2.7-.4-5.4-.7c-3.6-.5-7.1-1.2-10.7-1.8-3.5-.8-7.1-1.4-10.6-2.3s-7-1.7-10.5-2.8l1.3-4.4c.6-1.7 1.8-3 3.7-3.7 1.9-.8 3.9-1 6.1-.4l1.6-6.6c.1-.6 0-1.2-.4-1.7s-.9-.9-1.7-1.1c3.8-.5 6.8-2 9.2-4.6l-4.9 21.9c2.8.6 5.5 1.2 8.3 1.7l.8-4.4c.1-.6-.1-1.2-.5-1.7-.5-.5-1-.9-1.8-1 3.9-.6 7-2.4 9.2-5.1l-2.1 13.2q2.1.45 4.2.6l4.2.6.6-4.4c.1-.6-.1-1.2-.6-1.7q-.75-.75-1.8-.9 2.85-.6 5.1-2.1 2.4-1.35 3.9-3.6m-34.4 5.2c-.8-.2-1.4-.1-2.1.2-.6.3-1 .7-1.2 1.3l2.8.7zm92-31.2c-.7.1-1.2.4-1.6.9s-.5 1-.5 1.7l6 39.7c-1.9.3-3.8.6-5.7.8l-6.2-48.7c2 2.8 4.6 4.6 8 5.6m-13.2-5 5 48.8c-12.4 1.2-24.8 1.6-37.1 1-.4 4.4-3.4 6.5-8.9 6.1-1-.1-2-.4-3.1-.8s-2-1.1-2.8-1.8c-.2-.2-.1-.2.1-.2 2.9.3 5.1.1 6.6-.5s2.3-1.7 2.4-3.2l.3-4.4c0-.6-.2-1.2-.7-1.6-.5-.5-1.2-.8-2-.8 3.8-1.1 6.8-3.2 8.7-6.1l-.4 8.9c1 .1 2 .1 3.1.2l3.1.1c-.3-.7-.4-1.4-.4-2.2 0-1.6.7-2.9 1.9-4.1s2.7-1.9 4.5-2.3c3-.7 4.5-2.3 4.5-4.7.6.8.9 1.7.9 2.6.1.9-.2 1.7-.7 2.4.8.3 1.4.8 2 1.4.5.6.8 1.3.9 2.2 0 .1 0 .1-.1 0-1-1.3-2.4-1.9-4.2-1.9-1 0-2 .4-2.8 1s-1.2 1.4-1.2 2.3.4 1.7 1.1 2.3 1.7.9 2.8 1l7.8-.2 7.8-.5-2.8-35.6c0-.6-.3-1.1-.8-1.5s-1.1-.6-1.8-.5c1.5-.8 2.9-1.8 4-3 .8-1.4 1.7-2.8 2.3-4.4m36.5 11.7c.2.6.1 1.2-.3 1.7-.3.5-.9.9-1.6 1.1s-1.4.1-2-.2-1-.8-1.1-1.4c-.2-.6 0-1.2.3-1.7.4-.5.9-.8 1.6-1.1.7-.2 1.3-.1 1.9.1.7.5 1 .9 1.2 1.5m-6.2 1.6c.1.6 0 1.2-.3 1.7-.4.5-.9.9-1.6 1-.7.2-1.3.1-1.9-.2s-.9-.8-1.1-1.4c-.1-.6 0-1.2.4-1.7s.9-.9 1.6-1c.7-.2 1.3-.1 1.9.2.5.3.8.8 1 1.4m30 28.9q.3.9-.3 1.8c-.4.6-1 1-1.8 1.3s-1.6.3-2.3 0c-.7-.2-1.1-.7-1.3-1.3q-.3-.9.3-1.8t1.8-1.2c.8-.3 1.5-.3 2.2 0 .8.1 1.2.5 1.4 1.2m-7.1 2.2q.3.9-.3 1.8c-.4.6-1 1-1.9 1.2-.8.2-1.5.2-2.2-.1s-1.1-.7-1.3-1.3 0-1.2.4-1.8 1-.9 1.8-1.2c.8-.2 1.6-.2 2.2 0 .7.4 1.1.8 1.3 1.4m.4-24.2 5.7 16.9c-9.2 3.1-18.5 5.6-27.9 7.7l-1-4.5q-.45-2.7 1.5-5.1c1.3-1.6 3-2.7 5.2-3.2l-1.7-6.6c-.1-.6-.5-1-1.1-1.3s-1.3-.4-2-.2c3.1-2.1 5.1-5 6-8.4l5.9 21.6 4.1-1.1c1.4-.4 2.7-.8 4.1-1.3l-1.3-4.2c-.2-.6-.6-1-1.2-1.3s-1.3-.3-2 0c3-2.6 5-5.6 5.7-9m-15.4 16c-.8.2-1.3.5-1.8 1.1-.4.6-.6 1.1-.4 1.7l2.8-.6zm23.9-7.3c.7-.3 1.4-.3 2.1-.1s1.1.6 1.3 1.2l1.5 4.1c1 2.8-1.1 5.1-6.6 7.1-.2.1-.2.2 0 .2 1 .4 2.1.5 3.3.5 1.2-.1 2.2-.3 3.2-.6 2.6-.9 4.4-2.2 5.3-3.8s1-3.4.2-5.5l-5-12.4c-.5 3.6-2.3 6.8-5.3 9.3m85.6-35.8c.4.5.5 1.1.4 1.8q-.3 1.05-1.2 1.8c-.7.5-1.4.8-2.1.8s-1.3-.2-1.7-.7q-.6-.75-.3-1.8c.2-.7.6-1.3 1.3-1.8.6-.5 1.3-.8 2-.8.6 0 1.2.3 1.6.7m-4.8-61.5c-.4.5-.6 1-.6 1.7 0 .6.3 1.1.7 1.5l30.3 26.4c-1.3 1.5-2.6 3-4 4.4l-36-33.3c3.4.9 6.6.7 9.6-.7m-13.1 4.4 35.1 34.3c-8.5 8.7-17.5 16.6-26.9 24-9.5 7.4-19.4 14.2-29.8 20.2l.6 1c.8 1.3.8 2.8.2 4.5-.7 1.7-1.9 3-3.7 4s-3.6 1.4-5.3 1.1c-1.8-.3-3-1.2-3.7-2.5l-.5-1-5.1 2.6c2 4 .4 7.3-4.9 9.7-2.5 1.1-5.1 1.5-7.6 1.1-.3-.1-.3-.2-.1-.3 3.1-1.3 5.2-2.7 6.5-4 1.2-1.4 1.5-2.7.9-4-2.6 1.3-5.3 2.3-7.9 3.5l-1.7-4.1c-.7-1.7-.6-3.5.4-5.3 1-1.9 2.5-3.2 4.5-4.1 1.2-.5 2.1-1.2 2.9-2q1.2-1.2 1.2-2.4l3.9 8 5-2.6c-.9-1.8-1.1-3.8-.4-5.9.6-2.2 1.8-4.1 3.7-5.6L455 563c-.3-.5-.8-.9-1.4-1-.7-.1-1.3 0-2 .3 1.2-1.4 2.1-3 2.7-4.7s.9-3.4.9-5l5.8 9.8c2.3-.8 4.5-.9 6.7-.3s3.8 1.7 4.9 3.3c1.6-1 3.2-2 4.7-3.1-1-1.5-1.2-3.3-.6-5.3s1.8-3.6 3.6-4.9c1-.7 1.9-1.5 2.5-2.4s.9-1.8.8-2.6l5.3 7.2c5-3.7 9.9-7.5 14.6-11.6-1.2-.3-2.5-.7-3.9-1.3-1.3-.6-2.6-1.1-3.8-1.5-1.2-.5-2.3-.8-3.4-1-1-.2-1.8 0-2.4.5s-1.1 1.1-1.4 1.9c-1.1-1.2-2.7-1.7-4.6-1.7.7-1.3 2-2.7 3.8-4.2q1.95-1.5 4.2-1.5c1.5 0 3.1.3 4.7.7 1.6.5 3.2 1.1 4.7 1.8 1.6.7 2.8 1.1 3.9 1.4 1 .2 1.9.3 2.8.1.8-.2 1.7-.7 2.8-1.7 2.1-1.9 4.2-3.9 6.2-5.8l-24.9-25.6c-.4-.4-1-.6-1.6-.6s-1.2.3-1.7.7c1-3.4 1.1-6.6 0-9.9m-47.3 84.5q-1.05.45-1.5 1.5c-.3.6-.4 1.2-.1 1.8.9-.4 1.7-.8 2.6-1.2zm20.7-3-2.5 1.4.5 1q.6 1.05 1.8.3c.9-.5 1.1-1 .7-1.7zm-4.1-7.3c-.5.7-.9 1.5-1 2.4-.1.8 0 1.6.4 2.3l2.5-1.4zm9.2-.9c-.9-1.5-2.3-2.1-4.3-1.9l1.9 3.3zm15.2-12.6c-.6.4-1 1-1.2 1.7s-.1 1.3.2 1.8l2.3-1.6z"/>
</svg>
